<svg width="59" height="37" xmlns="http://www.w3.org/2000/svg" xmlns:xlink="http://www.w3.org/1999/xlink" xmlns:svgjs="http://svgjs.com/svgjs" viewBox="0 0.19 59 36.621"><svg xmlns="http://www.w3.org/2000/svg" width="59" height="37" viewBox="2 2 58 36"><path paint-order="stroke fill markers" fill-rule="evenodd" d="M55.94 17.262l-1.502-5.895a.895.895 0 0 0 .719-.872v-.95c0-2.064-1.712-3.743-3.815-3.743h-6.84v-1.96c0-1.016-.843-1.842-1.878-1.842H7.751c-1.034 0-1.876.826-1.876 1.842V20a.9.9 0 0 0 .908.891.9.9 0 0 0 .908-.89V3.84a.06.06 0 0 1 .06-.059h34.873a.06.06 0 0 1 .06.06V20a.9.9 0 0 0 .909.891.9.9 0 0 0 .908-.89v-1.01h10.718c1.318 0 2.437.85 2.822 2.02h-2.824a.9.9 0 0 0-.908.89v1.901c0 1.54 1.276 2.792 2.845 2.792h1.03v3.921h-2.375c-.78-2.21-2.921-3.802-5.436-3.802-2.514 0-4.655 1.592-5.435 3.802h-.437v-6.713a.9.9 0 0 0-.908-.891.9.9 0 0 0-.909.891v6.713H23.843c-.78-2.21-2.922-3.802-5.436-3.802s-4.655 1.592-5.435 3.802h-5.22a.06.06 0 0 1-.061-.06v-1.96h3.935a.9.9 0 0 0 .908-.891.9.9 0 0 0-.908-.891H2.908a.9.9 0 0 0-.908.891.9.9 0 0 0 .908.891h2.967v1.96c0 1.016.842 1.842 1.877 1.842h4.905l-.001.06c0 3.111 2.58 5.643 5.751 5.643 3.171 0 5.752-2.532 5.752-5.644l-.002-.059h20.467l-.002.06c0 3.111 2.58 5.643 5.751 5.643 3.172 0 5.752-2.532 5.752-5.644l-.002-.059h2.969a.9.9 0 0 0 .908-.891v-9.505c0-2.347-1.765-4.296-4.06-4.64zM44.5 7.584h6.841c1.102 0 1.998.88 1.998 1.96v.06h-8.839v-2.02zm0 9.624v-5.822h8.07l1.483 5.822H44.5zm-26.094 19.01c-2.17 0-3.935-1.732-3.935-3.861 0-2.13 1.765-3.862 3.935-3.862s3.935 1.732 3.935 3.862c0 2.129-1.765 3.861-3.935 3.861zm31.967 0c-2.17 0-3.936-1.732-3.936-3.861 0-2.13 1.766-3.862 3.936-3.862s3.935 1.732 3.935 3.862c0 2.129-1.765 3.861-3.935 3.861zm7.81-11.406h-1.03a1.02 1.02 0 0 1-1.029-1.01v-1.01h2.059v2.02zm-39.777 5.703c-1.035 0-1.877.826-1.877 1.842 0 1.015.842 1.841 1.877 1.841 1.035 0 1.877-.826 1.877-1.841 0-1.016-.842-1.842-1.877-1.842zm31.967 0c-1.035 0-1.877.826-1.877 1.842 0 1.015.842 1.841 1.877 1.841 1.035 0 1.877-.826 1.877-1.841 0-1.016-.842-1.842-1.877-1.842zm-10.656-3.802H26.157a.9.9 0 0 0-.909.891.9.9 0 0 0 .909.891h13.561a.9.9 0 0 0 .908-.89.9.9 0 0 0-.908-.892zM16.47 22.911H4.846a.9.9 0 0 0-.909.891.9.9 0 0 0 .909.891H16.47a.9.9 0 0 0 .908-.89.9.9 0 0 0-.908-.892zm17.11-12.096a.92.92 0 0 0-1.285 0L24.22 18.74l-4.201-4.122a.92.92 0 0 0-1.284 0 .88.88 0 0 0 0 1.26l4.843 4.752c.177.174.41.261.642.261a.913.913 0 0 0 .642-.26l8.718-8.555a.88.88 0 0 0 0-1.26z"/></svg></svg>