<svg width="59" height="39" xmlns="http://www.w3.org/2000/svg" xmlns:xlink="http://www.w3.org/1999/xlink" xmlns:svgjs="http://svgjs.com/svgjs" viewBox="0 0.172 59 38.655"><svg xmlns="http://www.w3.org/2000/svg" width="59" height="39" viewBox="2 2 58 38"><path paint-order="stroke fill markers" fill-rule="evenodd" d="M53.958 2H8.042C4.712 2 2 4.665 2 7.937v26.126C2 37.335 4.711 40 8.042 40h45.916C57.288 40 60 37.335 60 34.063V7.937C60 4.665 57.288 2 53.958 2zm3.625 32.062c0 1.965-1.626 3.563-3.625 3.563H8.042c-1.999 0-3.625-1.598-3.625-3.563V7.937c0-1.964 1.626-3.562 3.625-3.562h45.916c1.999 0 3.625 1.598 3.625 3.562v26.125zm1.209-24.937H3.208C2.541 9.125 2 9.657 2 10.312v7.125c0 .656.541 1.188 1.208 1.188h55.584c.667 0 1.208-.532 1.208-1.188v-7.125c0-.655-.541-1.187-1.208-1.187zm-1.209 7.125H4.417V11.5h53.166v4.75zm-32.625 9.5h-14.5c-.667 0-1.208.532-1.208 1.188 0 .655.541 1.187 1.208 1.187h14.5c.667 0 1.209-.532 1.209-1.188 0-.655-.542-1.187-1.209-1.187zm0 4.75h-14.5c-.667 0-1.208.532-1.208 1.188 0 .655.541 1.187 1.208 1.187h14.5c.667 0 1.209-.532 1.209-1.187 0-.656-.542-1.188-1.209-1.188zm24.167-7.125h-2.417c-1.998 0-3.625 1.598-3.625 3.562v2.375c0 1.965 1.627 3.563 3.625 3.563h2.417c1.999 0 3.625-1.598 3.625-3.563v-2.375c0-1.964-1.626-3.562-3.625-3.562zm1.208 5.938c0 .655-.541 1.187-1.208 1.187h-2.417a1.199 1.199 0 0 1-1.208-1.187v-2.375c0-.656.541-1.188 1.208-1.188h2.417c.667 0 1.208.532 1.208 1.188v2.375z"/></svg></svg>