<svg width="55" height="41" xmlns="http://www.w3.org/2000/svg" xmlns:xlink="http://www.w3.org/1999/xlink" xmlns:svgjs="http://svgjs.com/svgjs" viewBox="0 0.13 55 40.741"><svg xmlns="http://www.w3.org/2000/svg" width="55" height="41" viewBox="2 1 54 40"><path paint-order="stroke fill markers" fill-rule="evenodd" d="M45.875 14.333h-33.75C6.543 14.333 2 18.82 2 24.333v13.334C2 39.504 3.514 41 5.375 41h47.25C54.485 41 56 39.504 56 37.667V24.333c0-5.513-4.543-10-10.125-10zm7.875 23.334a1.12 1.12 0 0 1-1.125 1.11H5.375a1.12 1.12 0 0 1-1.125-1.11V24.333c0-4.289 3.532-7.778 7.875-7.778h33.75c4.342 0 7.875 3.49 7.875 7.778v13.334zM12.125 14.333c-.621 0-1.125.498-1.125 1.111 0 .614.504 1.111 1.125 1.111 4.342 0 7.875 3.49 7.875 7.778v13.334a1.12 1.12 0 0 1-1.125 1.11c-.621 0-1.125.499-1.125 1.112 0 .613.504 1.111 1.125 1.111 1.86 0 3.375-1.496 3.375-3.333V24.333c0-5.513-4.543-10-10.125-10zM41.375 1h-11.25C29.504 1 29 1.498 29 2.111v22.222c0 .614.504 1.111 1.125 1.111s1.125-.497 1.125-1.11V9.888h10.125c.621 0 1.125-.498 1.125-1.111V2.11C42.5 1.498 41.996 1 41.375 1zM40.25 7.667h-9V3.222h9v4.445z"/></svg></svg>