<svg width="55" height="51" xmlns="http://www.w3.org/2000/svg" xmlns:xlink="http://www.w3.org/1999/xlink" xmlns:svgjs="http://svgjs.com/svgjs" viewBox="0 0.039 55 50.921"><svg xmlns="http://www.w3.org/2000/svg" width="55" height="51" viewBox="2.001 2.003 54.002 49.997"><path paint-order="stroke fill markers" fill-rule="evenodd" d="M24.644 42.496a4.756 4.756 0 0 0-4.75 4.752c0 2.62 2.131 4.752 4.75 4.752a4.756 4.756 0 0 0 4.75-4.752c-.001-2.62-2.131-4.752-4.75-4.752zm0 6.85a2.1 2.1 0 0 1-2.098-2.098 2.1 2.1 0 0 1 2.098-2.099 2.1 2.1 0 0 1 2.097 2.1 2.1 2.1 0 0 1-2.097 2.098zm16.659-6.85a4.756 4.756 0 0 0-4.75 4.752c0 2.62 2.13 4.752 4.75 4.752a4.756 4.756 0 0 0 4.749-4.752c0-2.62-2.13-4.752-4.75-4.752zm0 6.85a2.1 2.1 0 0 1-2.098-2.098 2.1 2.1 0 0 1 2.098-2.099 2.1 2.1 0 0 1 2.097 2.1 2.1 2.1 0 0 1-2.097 2.098zm1.169-31.868h-19a1.326 1.326 0 0 0 0 2.654h19a1.326 1.326 0 0 0 0-2.654zm-1.034 6.89H24.505a1.326 1.326 0 0 0 0 2.653h16.933a1.326 1.326 0 0 0 0-2.654zm13.967-12.8a2.64 2.64 0 0 0-2.055-.977h-41.3l-.834-4.052a2.656 2.656 0 0 0-1.542-1.898l-5.82-2.527A1.325 1.325 0 1 0 2.8 4.547l5.82 2.528 6.415 31.158a2.662 2.662 0 0 0 2.597 2.118h31.765a1.326 1.326 0 0 0 0-2.653H17.63l-.78-3.79h32.79c1.252 0 2.345-.89 2.597-2.118l3.71-18.011a2.644 2.644 0 0 0-.543-2.211zm-5.764 19.687H16.305l-3.709-18.011H53.35l-3.709 18.01z"/></svg></svg>